<svg _ngcontent-ppy-c10="" class="svg-frame"><path _ngcontent-ppy-c10="" fill-rule="evenodd" clip-rule="evenodd" d="M149.907 6.409C147.901 6.45114 145.93 6.48179 144 6.49995C142.163 6.51723 140.294 6.52386 138.396 6.5205L138.392 8.5205C140.297 8.52387 142.174 8.51722 144.019 8.49986C145.957 8.48162 147.936 8.45085 149.949 8.40856L149.907 6.409ZM127.17 6.39508L127.13 8.39469C123.444 8.32192 119.688 8.21938 115.886 8.09126L115.953 6.09239C119.747 6.22024 123.494 6.32251 127.17 6.39508ZM104.74 5.64914L104.65 7.64711C100.921 7.47931 97.1717 7.29148 93.4231 7.08735L93.5318 5.09031C97.2747 5.29413 101.018 5.48164 104.74 5.64914ZM82.3285 4.43374L82.2036 6.42983C78.4352 6.19406 74.6901 5.94538 70.991 5.68763L71.13 3.69247C74.8247 3.94991 78.5651 4.19828 82.3285 4.43374ZM59.9361 2.87625L59.7844 4.87049C55.9635 4.57992 52.2213 4.2835 48.5855 3.98587L48.7487 1.99254C52.3809 2.28987 56.1192 2.58599 59.9361 2.87625ZM37.5685 1.04673L37.3946 3.03916C35.4868 2.87264 33.6222 2.7073 31.8057 2.544C29.7625 2.36031 27.7622 2.41124 25.8271 2.67143L25.5606 0.689273C27.6424 0.409346 29.7922 0.35492 31.9848 0.552037C33.7996 0.715187 35.6625 0.880366 37.5685 1.04673ZM13.6075 5.17557L14.7072 6.84612C11.3589 9.0502 8.52031 11.9785 6.42063 15.3943L4.71679 14.347C6.96976 10.6818 10.0146 7.54071 13.6075 5.17557ZM0.600034 26.4326L2.58939 26.6387C2.38817 28.5811 2.39787 30.5823 2.64308 32.619C2.8633 34.4481 3.08644 36.3231 3.31134 38.238L1.32499 38.4713C1.10033 36.5584 0.877416 34.6854 0.657415 32.858C0.394304 30.6726 0.383576 28.5221 0.600034 26.4326ZM2.61048 49.7115L4.59823 49.4904C5.00671 53.1639 5.41371 56.93 5.81245 60.7541L3.82323 60.9615C3.425 57.1423 3.0185 53.3808 2.61048 49.7115ZM4.95379 72.2202L6.94457 72.0284C7.30587 75.7774 7.65351 79.5492 7.98146 83.3135L5.989 83.4871C5.66164 79.7295 5.31457 75.9637 4.95379 72.2202ZM6.91049 94.764L8.90475 94.6126C9.195 98.4356 9.45808 102.219 9.68741 105.929L7.69122 106.052C7.46253 102.353 7.20011 98.5788 6.91049 94.764ZM8.28941 117.35L10.2876 117.264C10.3705 119.189 10.4414 121.082 10.499 122.938C10.5619 124.961 10.6114 127.015 10.6482 129.096L8.64851 129.132C8.61182 127.059 8.56255 125.014 8.5 123C8.44262 121.153 8.37207 119.267 8.28941 117.35ZM8.72523 141.425L10.7252 141.434C10.7079 145.474 10.6516 149.587 10.5609 153.753L8.56138 153.709C8.65182 149.554 8.70792 145.453 8.72523 141.425ZM8.20304 165.993L10.2017 166.065C10.0544 170.143 9.87927 174.25 9.68045 178.367L7.68278 178.271C7.88124 174.161 8.05597 170.062 8.20304 165.993ZM7.02436 190.542L9.02092 190.659C8.77941 194.768 8.51818 198.868 8.24115 202.941L6.24576 202.806C6.52241 198.738 6.78324 194.644 7.02436 190.542ZM5.36066 215.063L7.35486 215.215C7.03887 219.359 6.71014 223.453 6.37305 227.477L4.38003 227.31C4.71673 223.29 5.04506 219.201 5.36066 215.063ZM3.31126 239.557L5.30308 239.738C4.92221 243.938 4.53674 248.029 4.15226 251.985L2.16164 251.792C2.54572 247.84 2.9308 243.752 3.31126 239.557ZM0.935064 264.021L2.92446 264.226C2.70839 266.316 2.49464 268.351 2.28427 270.328C2.05745 272.458 2.08875 274.564 2.3509 276.619L0.366964 276.872C0.0855865 274.666 0.0518731 272.405 0.295509 270.116C0.505671 268.142 0.719211 266.108 0.935064 264.021ZM4.95606 289.502L6.65033 288.439C8.89437 292.016 11.8738 295.17 15.3536 297.675L14.1851 299.298C10.5009 296.646 7.34104 293.304 4.95606 289.502ZM26.4127 304.918L26.8738 302.972C28.9209 303.457 31.0265 303.737 33.1637 303.788C35.1654 303.835 37.2493 303.898 39.4158 303.979L39.3417 305.977C37.184 305.897 35.109 305.835 33.1162 305.787C30.8355 305.733 28.5913 305.434 26.4127 304.918ZM51.7841 306.589L51.9053 304.593C53.928 304.715 56.007 304.852 58.1425 305.005C60.012 305.139 62.1181 305.344 64.4304 305.604L64.2074 307.591C61.9102 307.333 59.833 307.131 58 307C55.8716 306.848 53.7997 306.711 51.7841 306.589ZM76.6078 309.156L76.8722 307.174C77.945 307.317 79.0411 307.463 80.1598 307.613C83.0491 308 86.0887 308.407 89.264 308.822L89.0053 310.805C85.8283 310.39 82.7851 309.983 79.8962 309.596C78.7765 309.446 77.68 309.299 76.6078 309.156ZM101.406 312.352L101.64 310.365C105.637 310.837 109.777 311.294 114.028 311.716L113.83 313.706C109.565 313.282 105.413 312.824 101.406 312.352ZM126.283 314.801L126.434 312.807C130.513 313.116 134.661 313.379 138.853 313.579L138.758 315.577C134.545 315.376 130.379 315.112 126.283 314.801ZM151.25 315.969L151.278 313.969C153.345 313.999 155.417 314.01 157.491 314C159.334 313.991 161.18 313.974 163.025 313.948L163.053 315.948C161.202 315.974 159.35 315.991 157.5 316C155.413 316.01 153.329 315.999 151.25 315.969ZM174.156 315.697L174.095 313.698C177.807 313.583 181.502 313.439 185.161 313.271L185.253 315.269C181.584 315.438 177.88 315.582 174.156 315.697ZM196.345 314.682C200.105 314.458 203.806 314.212 207.428 313.95L207.284 311.956C203.669 312.217 199.977 312.462 196.226 312.685L196.345 314.682ZM218.501 313.086L218.334 311.093C222.144 310.773 225.832 310.441 229.372 310.105L229.562 312.096C226.014 312.433 222.319 312.765 218.501 313.086ZM240.616 310.986L240.405 308.997C242.304 308.796 244.14 308.596 245.908 308.4C247.593 308.212 249.214 307.863 250.759 307.37L251.367 309.275C249.696 309.808 247.946 310.186 246.129 310.388C244.358 310.585 242.519 310.785 240.616 310.986ZM260.66 304.065C263.368 301.73 265.596 298.871 267.219 295.663L265.434 294.76C263.928 297.738 261.861 300.389 259.354 302.551L260.66 304.065ZM270.13 285.408L268.138 285.236C268.278 283.608 268.268 281.942 268.095 280.255C267.906 278.411 267.714 276.506 267.518 274.548L269.508 274.349C269.703 276.305 269.896 278.209 270.085 280.052C270.27 281.863 270.281 283.655 270.13 285.408ZM268.399 262.94L266.408 263.128C266.055 259.397 265.704 255.567 265.363 251.698L267.355 251.522C267.696 255.387 268.047 259.213 268.399 262.94ZM266.39 240.097L264.396 240.257C264.086 236.403 263.794 232.566 263.53 228.805L265.525 228.664C265.789 232.418 266.08 236.248 266.39 240.097ZM264.795 217.222L262.798 217.335C262.688 215.377 262.589 213.459 262.502 211.593C262.398 209.349 262.301 207.16 262.21 205.017L264.208 204.933C264.299 207.072 264.396 209.259 264.5 211.5C264.586 213.359 264.685 215.27 264.795 217.222ZM263.714 191.812L261.715 191.877C261.568 187.331 261.455 182.972 261.372 178.729L263.371 178.69C263.454 182.924 263.568 187.274 263.714 191.812ZM263.211 165.565L261.211 165.575C261.19 161.174 261.203 156.818 261.246 152.418L263.246 152.438C263.203 156.829 263.19 161.174 263.211 165.565ZM263.46 139.314L261.461 139.269C261.555 135.028 261.673 130.673 261.813 126.13L263.812 126.192C263.672 130.73 263.554 135.079 263.46 139.314ZM264.256 113.069L262.258 112.997C262.335 110.856 262.417 108.667 262.501 106.424C262.579 104.388 262.668 102.298 262.767 100.165L264.765 100.259C264.666 102.386 264.577 104.47 264.5 106.5C264.415 108.741 264.334 110.929 264.256 113.069ZM265.432 87.778L263.435 87.6593C263.679 83.5594 263.949 79.3764 264.238 75.1675L266.234 75.3045C265.945 79.5082 265.675 83.685 265.432 87.778ZM267.136 62.8374L265.141 62.6863C265.46 58.4797 265.79 54.3032 266.123 50.2141L268.117 50.3767C267.784 54.4624 267.454 58.635 267.136 62.8374ZM269.164 37.9223L267.171 37.75C267.355 35.626 267.537 33.5468 267.717 31.5223C267.894 29.5252 267.846 27.5693 267.596 25.676L269.579 25.4146C269.848 27.4523 269.899 29.5551 269.709 31.699C269.53 33.7222 269.347 35.7998 269.164 37.9223ZM265.26 13.6939L263.579 14.7787C261.454 11.4871 258.626 8.68226 255.316 6.58262L256.387 4.89368C259.942 7.14815 262.978 10.1591 265.26 13.6939ZM244.634 0.66007L244.386 2.64458C242.49 2.40725 240.533 2.37123 238.537 2.55996C236.627 2.74065 234.663 2.92378 232.652 3.10823L232.469 1.1166C234.478 0.932324 236.44 0.749361 238.349 0.56884C240.491 0.366284 242.594 0.404707 244.634 0.66007ZM220.696 2.16245L220.867 4.15512C217.028 4.48458 213.083 4.81148 209.072 5.12944L208.914 3.13569C212.921 2.8181 216.861 2.49157 220.696 2.16245ZM197.126 4.02707L197.269 6.02194C193.348 6.30342 189.399 6.57115 185.457 6.81959L185.331 4.82354C189.267 4.57551 193.21 4.30817 197.126 4.02707ZM173.53 5.50663L173.635 7.50389C169.636 7.71335 165.679 7.89663 161.799 8.0477L161.721 6.04922C165.591 5.89853 169.539 5.71568 173.53 5.50663Z" fill="black"/></svg>