<svg xmlns="http://www.w3.org/2000/svg" width="21" height="17" viewBox="0 0 21 17" fill="none"><path d="M21 2.01124C20.2276 2.35266 19.3979 2.58347 18.5257 2.68722C19.4159 2.1562 20.0979 1.31472 20.4199 0.313227C19.5743 0.813548 18.6488 1.16577 17.6836 1.3546C16.8982 0.52066 15.7782 0 14.539 0C12.1606 0 10.2317 1.92063 10.2317 4.29118C10.2317 4.62706 10.2697 4.95475 10.3427 5.26936C6.76229 5.09012 3.58802 3.38174 1.46332 0.785865C1.09232 1.41985 0.879963 2.15697 0.879963 2.94345C0.879963 4.43204 1.6406 5.74543 2.79636 6.51479C2.11217 6.49367 1.44299 6.30971 0.844764 5.97829V6.03251C0.844764 8.11183 2.3295 9.84563 4.30039 10.2399C3.93834 10.3388 3.55839 10.3904 3.16531 10.3904C2.88739 10.3904 2.61776 10.3642 2.35435 10.3148C2.90257 12.0191 4.49357 13.2597 6.37816 13.2947C4.90377 14.446 3.04598 15.1323 1.02821 15.1323C0.680671 15.1323 0.337194 15.1116 0 15.0711C1.90678 16.289 4.17077 17 6.6037 17C14.5273 17 18.8608 10.4612 18.8608 4.79063C18.8608 4.60446 18.8567 4.41969 18.8477 4.23557C19.692 3.62726 20.4208 2.87406 21 2.01124Z" fill="#fff"/></svg>