<svg _ngcontent-ppy-c12="" width="125" height="144" viewBox="0 0 125 144" fill="none" xmlns="http://www.w3.org/2000/svg"><path _ngcontent-ppy-c12="" d="M37.3641 120.613C31.6783 117.074 28.5497 113.307 27.7785 109.099C26.5854 102.574 31.2762 96.4114 36.257 89.8907C38.2125 87.3218 40.2284 84.6782 41.9358 81.958C47.8696 72.4277 49.7644 62.5447 51.4426 53.8454C52.0764 50.528 52.6881 47.3906 53.4663 44.536C54.0298 42.4963 59.2495 24.5052 70.9361 19.9274C77.4153 17.3871 84.4866 19.4281 91.8713 25.9977C101.127 34.2549 103.196 47.7903 97.4112 62.2353C93.7353 71.4183 87.6705 79.1868 81.826 86.7136C78.3387 91.2058 74.7155 95.8352 71.7152 100.672C70.3711 102.821 69.1009 105.154 67.8763 107.4C63.6506 115.125 59.6404 122.431 52.5831 124.281C48.1426 125.432 43.1815 124.234 37.3641 120.613ZM84.9516 25.2656C80.4048 22.4259 76.1426 21.7688 72.2461 23.2857C64.0742 26.4824 58.782 38.7312 56.9258 45.4826C56.1875 48.1963 55.5971 51.2769 54.9818 54.5104C53.2567 63.5424 51.2879 73.7611 44.9909 83.8622C43.2047 86.7411 41.1283 89.4593 39.1245 92.0879C34.6484 97.9544 30.4232 103.48 31.3282 108.438C31.9044 111.574 34.5004 114.564 39.2655 117.531C44.192 120.604 48.236 121.653 51.6399 120.775C57.183 119.33 60.8115 112.679 64.6612 105.663C65.9221 103.372 67.2285 100.995 68.6181 98.7586C71.7243 93.7603 75.4079 89.0562 78.9436 84.5043C84.6459 77.1837 90.5387 69.5972 94.0347 60.9112C96.5329 54.6795 101.091 39.0936 89.4409 28.7259C87.9279 27.3284 86.4134 26.1768 84.9516 25.2656Z" fill="black"/><path _ngcontent-ppy-c12="" d="M64.3457 85.0198L63.3975 86.6494L63.3854 86.6644L63.4722 86.7099C64.0879 87.1093 64.5145 87.5287 64.6951 87.9468C64.8047 88.2084 64.8744 88.6108 64.5837 89.0921C64.3413 89.5137 63.983 89.7427 63.5628 89.7733C62.7104 89.8495 61.6276 89.2943 58.5568 87.501C55.486 85.7077 54.4849 85.021 54.1294 84.239C53.9516 83.848 53.9899 83.4343 54.2323 83.0126C54.523 82.5313 54.9168 82.3806 55.187 82.3521C55.6313 82.2916 56.1674 82.4536 56.8464 82.8054L56.9332 82.8509L57.8934 81.2064L57.8067 81.1609C56.6734 80.5155 55.5437 80.2931 54.6394 80.525C53.7742 80.7391 53.1564 81.2276 52.6596 82.0858C52.1265 82.9887 52.0192 83.9151 52.362 84.835C52.8848 86.2959 54.0743 87.0857 57.5965 89.1455C61.1188 91.2054 62.3751 91.8515 63.9065 91.6082C64.4169 91.5271 64.874 91.3287 65.2806 91.04C65.6361 90.784 65.9261 90.4257 66.1834 90.0161C66.6589 89.2148 66.7953 88.4356 66.599 87.6095C66.3764 86.6633 65.6106 85.747 64.4446 85.0504L64.3457 85.0198Z" fill="black"/><path _ngcontent-ppy-c12="" d="M58.9769 71.655L55.8722 76.9263L55.8601 76.9412L62.8776 81.0638C67.1294 83.5658 67.052 84.5164 66.5189 85.4193L66.3796 85.6526L67.9523 86.5794L68.2522 86.0561C68.6915 85.2996 69.0383 84.4436 68.5313 83.3908C67.9916 82.2868 66.5226 81.0484 64.0619 79.6006L58.3689 76.2534L59.5865 74.1994L71.1459 80.9846L71.2326 81.0301L72.1929 79.3856L72.205 79.3707L59.0729 71.6585L58.9769 71.655Z" fill="black"/><path _ngcontent-ppy-c12="" d="M72.7992 74.7867L68.5326 72.2726L70.1774 69.4769L70.1866 69.435L68.6018 68.523L66.9599 71.3457L62.738 68.8679L64.6493 65.6207L64.6735 65.5909L63.0887 64.6789L60.205 69.5855L60.1808 69.6154L73.3129 77.3275L73.3996 77.373L76.2805 72.4394L76.2925 72.4245L74.7198 71.4976L72.7992 74.7867Z" fill="black"/><path _ngcontent-ppy-c12="" d="M79.9735 62.6269L79.9585 62.6149L79.392 63.5896L67.8327 56.8044L67.7459 56.7589L64.6199 62.0871L64.6078 62.102L69.936 65.2281C72.2951 66.6184 74.1764 68.141 75.6753 69.9225L75.1998 70.7238L79.0868 73.0047L79.1017 73.0168L80.0407 71.4291L77.7115 70.063L80.6072 65.1415L82.9215 66.4955L82.9365 66.5076L83.8754 64.92L79.9735 62.6269ZM68.3314 59.3332L78.3777 65.2399L76.642 68.209C75.2561 66.5932 73.4793 65.1551 71.1949 63.8252L67.1045 61.4292L68.3314 59.3332Z" fill="black"/></svg>