<svg _ngcontent-ppy-c10="" width="11" height="11" viewBox="0 0 11 11" fill="none" xmlns="http://www.w3.org/2000/svg" class="icon-remove"><path _ngcontent-ppy-c10="" fill-rule="evenodd" clip-rule="evenodd" d="M2.60658 1.1923C2.21606 0.801775 1.58289 0.801775 1.19237 1.1923C0.801842 1.58282 0.801843 2.21599 1.19237 2.60651L4.53555 5.9497L1.1923 9.29295C0.801775 9.68348 0.801775 10.3166 1.1923 10.7072C1.58282 11.0977 2.21599 11.0977 2.60651 10.7072L5.94977 7.36391L9.29287 10.707C9.68339 11.0975 10.3166 11.0975 10.7071 10.707C11.0976 10.3165 11.0976 9.68333 10.7071 9.2928L7.36398 5.9497L10.707 2.60666C11.0975 2.21614 11.0975 1.58298 10.707 1.19245C10.3165 0.801926 9.68333 0.801926 9.2928 1.19245L5.94977 4.53549L2.60658 1.1923Z" fill="black"/></svg>