<svg _ngcontent-ppy-c10="" width="0" height="0" viewBox="0 0 278 320" fill="none" xmlns="http://www.w3.org/2000/svg"><defs _ngcontent-ppy-c10=""><clipPath _ngcontent-ppy-c10="" id="chosenImage"><path _ngcontent-ppy-c10="" d="M14.883 23.532C17.581 8.668 31.752-1.113 46.725.895c24.917 3.341 63.082 7.576 96.22 7.537 30.684-.037 71.008-3.76 100.043-6.96 18.678-2.06 34.521 14.19 32.163 32.832-1.781 14.085-3.497 29.79-4.206 42.628-1.518 27.49-.462 42.972 0 70.5.735 43.86 4.745 100.041 7.314 132.382 1.169 14.716-9.143 27.864-23.774 29.831-26.938 3.622-69.467 8.674-101.04 9.287-42.445.823-93.214-5.68-120.608-9.791-11.909-1.787-21.049-11.221-22.51-23.175-4.479-36.663-12.69-116.422-7.882-176.034 2.164-26.84 8.081-62.396 12.438-86.4z" fill="#C4C4C4"/></clipPath><clipPath _ngcontent-ppy-c10="" id="newImage"><path _ngcontent-ppy-c10="" d="M0.640565 32.7917C-1.54829 14.6111 13.7297 -1.15397 31.968 0.485683C63.4594 3.31681 109.443 6.75861 143.983 6.43359C172.437 6.16585 208.817 3.18513 235.164 0.632947C253.03 -1.09764 268.263 13.912 266.678 31.7909C264.674 54.3937 262.343 83.7453 261.483 106.434C259.931 147.409 259.581 170.473 261.483 211.434C262.46 232.48 265.029 260.08 267.089 280.194C268.62 295.142 258.26 308.719 243.332 310.429C221.817 312.894 189.89 315.783 157.483 315.934C116.054 316.126 75.6626 308.196 57.9832 306.934C48.5973 306.263 40.3101 305.892 33.0993 305.721C14.4857 305.278 -1.69218 288.564 0.278658 270.05C4.43365 231.017 9.90904 168.838 8.48315 122.934C7.6258 95.3323 3.82756 59.2628 0.640565 32.7917Z" fill="#C4C4C4"/></clipPath></defs></svg>