<svg _ngcontent-ppy-c10="" class="svg-frame"><path _ngcontent-ppy-c10="" fill-rule="evenodd" clip-rule="evenodd" d="M158.802 318.824C156.647 318.9 154.531 318.959 152.462 319C150.462 319.038 148.444 319.061 146.411 319.068L146.404 317.068C148.427 317.061 150.435 317.039 152.423 317C154.48 316.96 156.585 316.901 158.731 316.825L158.802 318.824ZM134.296 318.943L134.343 316.943C130.347 316.85 126.318 316.707 122.28 316.523L122.188 318.521C126.241 318.706 130.285 318.849 134.296 318.943ZM110.092 317.851L110.221 315.855C106.182 315.594 102.158 315.298 98.1715 314.975L98.0098 316.969C102.006 317.293 106.041 317.589 110.092 317.851ZM85.943 315.9L86.1336 313.909C82.0457 313.518 78.0276 313.104 74.107 312.677L73.8903 314.665C77.819 315.093 81.8458 315.508 85.943 315.9ZM61.8518 313.279L62.0925 311.293C57.9198 310.787 53.9102 310.275 50.104 309.77L49.8406 311.752C53.6538 312.259 57.6711 312.772 61.8518 313.279ZM37.8363 310.089L38.1218 308.11C36.0276 307.808 34.0338 307.514 32.1508 307.231C29.4312 306.823 26.8712 305.985 24.5367 304.79L23.6252 306.57C26.1509 307.863 28.9183 308.769 31.854 309.209C33.7407 309.492 35.7382 309.787 37.8363 310.089ZM11.7495 294.335L13.5556 293.476C12.4284 291.106 11.6633 288.522 11.3298 285.792C11.0909 283.837 10.8413 281.758 10.5837 279.567L8.59738 279.801C8.85537 281.995 9.10527 284.076 9.34452 286.034C9.7044 288.98 10.5305 291.772 11.7495 294.335ZM7.18026 267.272L9.16855 267.056C8.73853 263.1 8.29988 258.914 7.86201 254.534L5.87193 254.733C6.3104 259.119 6.74966 263.311 7.18026 267.272ZM4.67281 242.179L6.66457 241.997C6.29416 237.928 5.93081 233.737 5.5806 229.448L3.58724 229.611C3.93797 233.906 4.30186 238.103 4.67281 242.179ZM2.62299 217.048L4.61786 216.905C4.32186 212.778 4.04213 208.586 3.78352 204.348L1.78724 204.47C2.0463 208.716 2.3265 212.914 2.62299 217.048ZM1.09167 191.882L3.08925 191.783C2.88368 187.614 2.70227 183.419 2.54938 179.213L0.5507 179.285C0.703923 183.5 0.885707 187.705 1.09167 191.882ZM0.18236 166.683L2.18188 166.639C2.09023 162.436 2.03132 158.24 2.00949 154.066L0.00952148 154.076C0.0314138 158.262 0.0904789 162.47 0.18236 166.683ZM0.0615751 141.469L2.06138 141.497C2.12063 137.263 2.22382 133.072 2.37565 128.941L0.377002 128.867C0.224572 133.015 0.121017 137.221 0.0615751 141.469ZM1.00736 116.281L3.00322 116.409C3.13881 114.303 3.28928 112.219 3.45532 110.16C3.59768 108.395 3.75644 106.591 3.9301 104.753L1.93897 104.565C1.76452 106.411 1.60495 108.224 1.46179 110C1.29485 112.07 1.1436 114.165 1.00736 116.281ZM3.08688 93.7103L5.0736 93.9404C5.48378 90.3991 5.93378 86.7864 6.41434 83.1378L4.43147 82.8766C3.94971 86.5343 3.4984 90.1574 3.08688 93.7103ZM5.92569 72.0643L7.9052 72.3499C8.42491 68.7468 8.96505 65.1435 9.51691 61.573L7.54038 61.2675C6.98759 64.844 6.44645 68.454 5.92569 72.0643ZM9.25535 50.4861L11.2292 50.8086C11.8292 47.1359 12.4323 43.5386 13.0282 40.0561L11.0568 39.7188C10.4601 43.2058 9.8562 46.8081 9.25535 50.4861ZM12.9352 28.9654L14.9042 29.3162C15.2322 27.475 15.5541 25.6862 15.868 23.9574C16.1722 22.2814 16.6331 20.6771 17.2324 19.1549L15.3714 18.4222C14.7245 20.0653 14.2278 21.7953 13.9001 23.6002C13.5859 25.3311 13.2636 27.122 12.9352 28.9654ZM21.1729 9.41724L22.6116 10.8065C24.9284 8.40732 27.701 6.46329 30.7656 5.0811L29.9433 3.25795C26.6508 4.74295 23.6682 6.83315 21.1729 9.41724ZM40.3625 0.739903L40.4644 2.73731C42.1112 2.6533 43.7875 2.71877 45.4759 2.94518C47.396 3.20265 49.3946 3.46542 51.4635 3.73113L51.7182 1.74742C49.6532 1.4822 47.6583 1.21992 45.7417 0.962917C43.9306 0.720062 42.1312 0.649679 40.3625 0.739903ZM63.7087 3.21864L63.4765 5.20512C67.3415 5.65688 71.3621 6.10479 75.4989 6.53765L75.7071 4.54851C71.5789 4.11655 67.5662 3.66953 63.7087 3.21864ZM87.7236 5.72669L87.5419 7.71842C91.5055 8.08001 95.5355 8.42003 99.6015 8.7298L99.7534 6.73558C95.6981 6.42662 91.678 6.08745 87.7236 5.72669ZM111.799 7.55171L111.682 9.54825C115.719 9.78596 119.762 9.98622 123.782 10.1408L123.859 8.14226C119.853 7.98827 115.824 7.78869 111.799 7.55171ZM135.927 8.46136L135.9 10.4612C137.936 10.4888 139.959 10.502 141.964 10.4996C144.023 10.4971 146.124 10.4782 148.262 10.444L148.23 8.44422C146.102 8.47827 144.01 8.49714 141.962 8.49958C139.967 8.50195 137.954 8.48884 135.927 8.46136ZM171.477 318.209L171.357 316.213C175.494 315.964 179.717 315.669 183.98 315.335L184.136 317.329C179.862 317.663 175.628 317.96 171.477 318.209ZM196.78 316.249L196.596 314.257C200.817 313.867 205.034 313.451 209.204 313.017L209.411 315.007C205.234 315.441 201.009 315.858 196.78 316.249ZM222.026 313.631L221.8 311.644C226.117 311.152 230.33 310.652 234.386 310.155L234.629 312.14C230.568 312.638 226.35 313.139 222.026 313.631ZM247.222 310.545C249.395 310.262 251.492 309.983 253.502 309.713C255.275 309.475 256.985 309.072 258.618 308.522L257.98 306.627C256.467 307.136 254.882 307.509 253.236 307.731C251.228 308.001 249.133 308.279 246.963 308.562L247.222 310.545ZM267.699 303.345L266.394 301.829C268.859 299.705 270.904 297.12 272.416 294.222L274.19 295.147C272.561 298.268 270.358 301.054 267.699 303.345ZM277.209 285.135L275.22 284.924C275.389 283.33 275.414 281.697 275.282 280.041C275.142 278.277 274.998 276.442 274.85 274.542L276.844 274.386C276.992 276.285 277.136 278.119 277.276 279.882C277.417 281.662 277.391 283.418 277.209 285.135ZM276.002 263.359L274.008 263.508C273.744 259.975 273.474 256.292 273.202 252.484L275.197 252.341C275.469 256.147 275.738 259.828 276.002 263.359ZM274.427 241.32L272.432 241.456C272.186 237.849 271.942 234.164 271.7 230.418L273.696 230.289C273.937 234.032 274.182 237.716 274.427 241.32ZM273.006 219.26C272.786 215.613 272.57 211.93 272.362 208.227L270.365 208.339C270.573 212.045 270.789 215.731 271.01 219.381L273.006 219.26ZM271.769 197.191C271.58 193.509 271.4 189.824 271.233 186.153L269.235 186.244C269.403 189.92 269.582 193.608 269.771 197.294L271.769 197.191ZM270.762 175.11L268.764 175.188C268.618 171.466 268.486 167.774 268.37 164.131L270.369 164.068C270.484 167.706 270.616 171.392 270.762 175.11ZM270.07 153.017L268.07 153.061C268.029 151.199 267.993 149.356 267.962 147.533C267.928 145.513 267.891 143.558 267.852 141.658L269.852 141.617C269.891 143.519 269.928 145.477 269.962 147.5C269.992 149.318 270.028 151.158 270.07 153.017ZM269.581 129.868L267.582 129.917L267.577 129.702C267.479 125.712 267.386 121.904 267.314 118.16L269.314 118.122C269.386 121.861 269.479 125.666 269.576 129.66C269.578 129.73 269.58 129.799 269.581 129.868ZM269.174 106.37L267.174 106.375C267.164 102.555 267.193 98.6659 267.279 94.5789L269.279 94.6209C269.193 98.6905 269.164 102.563 269.174 106.37ZM269.668 82.876L267.67 82.7866C267.755 80.8792 267.853 78.9166 267.965 76.8893C268.061 75.1451 268.176 73.3498 268.306 71.5145L270.301 71.6566C270.171 73.4825 270.057 75.2671 269.962 76.9996C269.85 79.0201 269.753 80.9757 269.668 82.876ZM271.191 60.9825L269.199 60.7957C269.529 57.277 269.898 53.6929 270.29 50.1088L272.278 50.3265C271.887 53.9019 271.52 57.4755 271.191 60.9825ZM273.509 39.6869C273.727 37.8961 273.947 36.1217 274.168 34.3723C274.451 32.1329 274.472 29.9281 274.257 27.7853L272.267 27.9853C272.467 29.9791 272.448 32.0327 272.184 34.1214C271.962 35.8738 271.742 37.6515 271.524 39.4458L273.509 39.6869ZM270.043 15.3945L268.341 16.4448C266.179 12.9407 263.252 9.94469 259.804 7.70777L260.892 6.02989C264.589 8.4284 267.726 11.639 270.043 15.3945ZM248.593 1.56309L248.356 3.5491C246.37 3.31281 244.318 3.29652 242.224 3.52722C240.198 3.75051 238.117 3.97635 235.988 4.20332L235.776 2.21459C237.903 1.98789 239.981 1.7623 242.005 1.53926C244.251 1.29177 246.456 1.30893 248.593 1.56309ZM223.301 3.49787L223.498 5.48814C219.427 5.89126 215.246 6.28943 210.995 6.67455L210.814 4.68271C215.059 4.29812 219.235 3.90049 223.301 3.49787ZM198.317 5.75648L198.479 7.74995C194.319 8.08693 190.131 8.40483 185.95 8.69654L185.811 6.70139C189.984 6.41024 194.164 6.09292 198.317 5.75648ZM173.294 7.49231C169.06 7.72998 164.871 7.93254 160.766 8.09235L160.843 10.0908C164.962 9.93053 169.162 9.7274 173.406 9.48917L173.294 7.49231Z" fill="black"/></svg>