<svg xmlns="http://www.w3.org/2000/svg" viewBox="31.39800262451172 83.94000244140625 206.635009765625 70.4020004272461"><g transform="matrix(0.7071067690849304,-0.7071067690849304,0.7071067690849304,0.7071067690849304,859.3031005859375,720)" opacity="1"><g opacity="1" transform="matrix(1,0,0,1,89.03500366210938,119.14099884033203)"><path fill="rgb(0,0,0)" fill-opacity="1" d=" M148.9980010986328,-35.20000076293945 C148.9980010986328,-35.20000076293945 148.9980010986328,-26.48200035095215 148.9980010986328,-26.48200035095215 C148.9980010986328,-26.48200035095215 117.01599884033203,-26.48200035095215 117.01599884033203,-26.48200035095215 C117.01599884033203,-26.48200035095215 117.01599884033203,35.198001861572266 117.01599884033203,35.198001861572266 C117.01599884033203,35.198001861572266 76.66799926757812,35.198001861572266 76.66799926757812,35.198001861572266 C76.66799926757812,35.198001861572266 76.66799926757812,-26.48699951171875 76.66799926757812,-26.48699951171875 C76.66799926757812,-26.48699951171875 44.71099853515625,-26.48699951171875 44.71099853515625,-26.48699951171875 C44.71099853515625,-26.48699951171875 44.71099853515625,-35.20000076293945 44.71099853515625,-35.20000076293945 C44.71099853515625,-35.20000076293945 148.9980010986328,-35.20000076293945 148.9980010986328,-35.20000076293945z M34.04600143432617,4.736999988555908 C34.04600143432617,4.736999988555908 34.05699920654297,4.729000091552734 34.05699920654297,4.729000091552734 C42.369998931884766,2.1429998874664307 48.40599822998047,-5.610000133514404 48.40599822998047,-14.774999618530273 C48.40599822998047,-26.05500030517578 39.26499938964844,-35.198001861572266 27.986000061035156,-35.198001861572266 C27.986000061035156,-35.198001861572266 28.05900001525879,-35.20100021362305 28.05900001525879,-35.20100021362305 C28.05900001525879,-35.20100021362305 -57.637001037597656,-35.20100021362305 -57.637001037597656,-35.20100021362305 C-57.637001037597656,-35.20100021362305 -57.63399887084961,35.20100021362305 -57.63399887084961,35.20100021362305 C-57.63399887084961,35.20100021362305 -17.27400016784668,35.20100021362305 -17.27400016784668,35.20100021362305 C-17.27400016784668,35.20100021362305 -17.27400016784668,5.182000160217285 -17.27400016784668,5.182000160217285 C-17.27400016784668,5.182000160217285 -5.525000095367432,5.182000160217285 -5.525000095367432,5.182000160217285 C-5.525000095367432,5.182000160217285 15.51200008392334,35.20100021362305 15.51200008392334,35.20100021362305 C15.51200008392334,35.20100021362305 57.637001037597656,35.196998596191406 57.637001037597656,35.196998596191406 C57.637001037597656,35.196998596191406 34.04600143432617,4.736999988555908 34.04600143432617,4.736999988555908z M-4.1579999923706055,-2.8359999656677246 C-4.1579999923706055,-2.8359999656677246 -4.1579999923706055,-2.8269999027252197 -4.1579999923706055,-2.8269999027252197 C-4.1579999923706055,-2.8269999027252197 -17.270000457763672,-2.8269999027252197 -17.270000457763672,-2.8269999027252197 C-17.270000457763672,-2.8269999027252197 -17.270000457763672,-27.18000030517578 -17.270000457763672,-27.18000030517578 C-17.270000457763672,-27.18000030517578 -4.1579999923706055,-27.18000030517578 -4.1579999923706055,-27.18000030517578 C-4.1579999923706055,-27.18000030517578 -4.1579999923706055,-27.184999465942383 -4.1579999923706055,-27.184999465942383 C2.565000057220459,-27.184999465942383 8.015000343322754,-21.733999252319336 8.015000343322754,-15.010000228881836 C8.015000343322754,-8.28600025177002 2.565000057220459,-2.8359999656677246 -4.1579999923706055,-2.8359999656677246z"/></g></g></svg>