<svg xmlns="http://www.w3.org/2000/svg" width="115" height="40" viewBox="0 0 115 40" fill="none"><path d="M111.643 5.03728H105.969C104.097 5.03728 102.612 6.5574 102.612 8.40539V8.465L101.423 6.5872C100.8 5.6036 99.7301 5.03728 98.5715 5.03728H93.6102C91.7386 5.03728 90.2532 6.5574 90.2532 8.40539V9.77647C89.9264 9.29957 89.5402 8.85248 89.0946 8.40539C86.6882 5.99108 83.8065 4.79883 80.2713 4.79883C76.736 4.79883 73.8543 5.96127 71.448 8.40539C68.1207 11.7437 68.1207 15.9166 68.1207 19.5827V19.9702V20.3577C68.1207 24.0239 68.1207 28.1967 71.448 31.535C73.8543 33.9494 76.736 35.1416 80.2713 35.1416C83.8065 35.1416 86.6882 33.9792 89.0946 31.535C89.5402 31.088 89.9264 30.6409 90.2532 30.164V31.535C90.2532 33.4128 91.7683 34.9032 93.6102 34.9032H99.2845C101.156 34.9032 102.641 33.383 102.641 31.535V31.4754L103.83 33.3532C104.454 34.3368 105.523 34.9032 106.682 34.9032H111.643C113.515 34.9032 115 33.383 115 31.535V8.40539C115 6.5574 113.485 5.03728 111.643 5.03728Z" fill="white"/><path d="M86.6882 29.1804C84.9948 30.8793 83.0638 31.7735 80.2415 31.7735C77.4193 31.7735 75.4882 30.8495 73.7949 29.1804C71.3588 26.7363 71.4479 23.4874 71.4479 20C71.4479 16.5127 71.3588 13.2638 73.7949 10.8197C75.4882 9.12075 77.4193 8.22656 80.2415 8.22656C83.0638 8.22656 84.9948 9.15056 86.6882 10.8197C89.1243 13.2638 89.0351 16.5127 89.0351 20C89.0351 23.4874 89.1243 26.7363 86.6882 29.1804ZM82.5291 14.307C82.1131 13.7407 81.311 13.2936 80.2712 13.2936C79.2315 13.2936 78.4293 13.7407 78.0134 14.307C77.5084 14.9926 77.1816 15.7675 77.1816 20C77.1816 24.2325 77.5084 24.9777 78.0134 25.6632C78.4293 26.2295 79.2315 26.7064 80.2712 26.7064C81.311 26.7064 82.1131 26.2295 82.5291 25.6632C83.0341 24.9777 83.3609 24.2325 83.3609 20C83.3609 15.7675 83.0341 14.9926 82.5291 14.307Z" fill="black"/><path d="M106.682 31.5657L99.2844 19.9115V31.5657H93.6102V8.40625H98.5714L105.969 20.0605V8.40625H111.643V31.5657H106.682Z" fill="black"/><path d="M63.6941 9.29955L55.4353 0.983607C54.1281 -0.327869 51.9892 -0.327869 50.682 0.983607L40.6407 11.0581L30.5993 0.983607C29.2922 -0.327869 27.1532 -0.327869 25.846 0.983607L19.9341 6.91505L14.0222 0.983607C12.7151 -0.327869 10.5761 -0.327869 9.26892 0.983607L0.980367 9.29955C-0.326789 10.611 -0.326789 12.7571 0.980367 14.0686L6.89228 20L0.980367 25.9016C-0.326789 27.2131 -0.326789 29.3592 0.980367 30.6706L9.26892 38.9866C10.5761 40.2981 12.7151 40.2981 14.0222 38.9866L19.9341 33.0849L25.846 39.0164C27.1532 40.3279 29.2922 40.3279 30.5993 39.0164L40.6407 28.9121L50.682 38.9866C51.9892 40.2981 54.1281 40.2981 55.4353 38.9866L63.7238 30.6706C65.031 29.3592 65.031 27.2131 63.7238 25.9016L57.8119 19.9702L63.7238 14.0387C65.031 12.7571 65.031 10.611 63.6941 9.29955Z" fill="white"/><path fill-rule="evenodd" clip-rule="evenodd" d="M11.6456 20.0015L19.9341 11.6855L28.2227 20.0015L19.9341 28.2876L11.6456 20.0015Z" fill="#76BD1D"/><path d="M22.8366 14.6055L23.1307 14.9006L22.0077 16.0272L24.1467 18.1733L22.7296 19.595L20.5907 17.449L19.4677 18.5757L19.1736 18.2806L22.8366 14.6055Z" fill="black"/><path d="M20.2431 20.0251C20.4303 19.6495 20.3768 19.1667 20.0559 18.8448C19.6549 18.4424 19.0132 18.4424 18.6389 18.8448L15.6443 21.8492L18.1041 24.3172L19.5212 22.8954L18.4784 21.8492L18.8795 21.4468L20.6442 21.7688L22.1147 20.2933L20.2431 20.0251ZM18.6389 21.0981L18.1843 21.5541L17.3287 20.6957L17.7833 20.2397C18.0239 19.9983 18.3982 19.9983 18.6389 20.2397C18.8795 20.4811 18.8795 20.8567 18.6389 21.0981Z" fill="black"/><path fill-rule="evenodd" clip-rule="evenodd" d="M19.9341 11.6831L28.2227 3.36719L36.5113 11.6831L28.193 19.9991L19.9341 11.6831Z" fill="black"/><path fill-rule="evenodd" clip-rule="evenodd" d="M3.35699 28.2867L11.6455 19.9707L19.9341 28.2867L11.6455 36.6026L3.35699 28.2867Z" fill="black"/><path fill-rule="evenodd" clip-rule="evenodd" d="M28.193 20L36.4816 28.3159L28.193 36.6319L19.9341 28.2861L28.193 20Z" fill="black"/><path fill-rule="evenodd" clip-rule="evenodd" d="M11.6455 3.36719L19.9341 11.6831L11.6455 19.9991L3.35699 11.6831L11.6455 3.36719Z" fill="black"/><path fill-rule="evenodd" clip-rule="evenodd" d="M61.3175 11.6831L53.0587 3.36719L36.4816 19.9991L53.0587 36.6012L61.3175 28.2852L53.0587 19.9991L61.3175 11.6831Z" fill="#76BD1D"/></svg>