<svg xmlns="http://www.w3.org/2000/svg" width="23" height="14" fill="none"><path d="M22.453.948c.158-.546 0-.948-.76-.948h-2.512c-.64 0-.934.345-1.092.73 0 0-1.28 3.195-3.088 5.266-.584.6-.853.791-1.173.791-.157 0-.4-.192-.4-.738v-5.1c0-.656-.18-.949-.709-.949H8.77c-.4 0-.64.306-.64.59 0 .62.905.765.999 2.513v3.794c0 .83-.145.983-.465.983-.853 0-2.926-3.208-4.155-6.88-.247-.712-.49-1-1.134-1H.862C.145 0 0 .345 0 .73c0 .682.853 4.069 3.971 8.544 2.077 3.055 5.003 4.712 7.665 4.712 1.6 0 1.796-.367 1.796-1.001 0-2.92-.145-3.195.656-3.195.372 0 1.011.192 2.504 1.665 1.706 1.748 1.988 2.53 2.943 2.53h2.513c.716 0 1.079-.366.87-1.092-.478-1.525-3.707-4.663-3.852-4.873-.37-.49-.264-.708 0-1.145.004-.005 3.071-4.428 3.387-5.927z" fill="#fff"/></svg>