<svg xmlns="http://www.w3.org/2000/svg" viewBox="-238 -238 714 714"><g transform="matrix(0.7071067690849304,-0.7071067690849304,0.7071067690849304,0.7071067690849304,859.3031005859375,720)" opacity="1" style="display: block;"><g opacity="1" transform="matrix(1,0,0,1,357,119)"><path fill="rgb(118,188,29)" fill-opacity="1" d=" M119,-119 C119,-119 119,119 119,119 C119,119 -119,119 -119,119 C-119,119 -119,-119 -119,-119 C-119,-119 119,-119 119,-119z"/></g><g opacity="1" transform="matrix(1,0,0,1,-119,119)"><path fill="rgb(118,188,29)" fill-opacity="1" d=" M119,-119 C119,-119 119,119 119,119 C119,119 -119,119 -119,119 C-119,119 -119,-119 -119,-119 C-119,-119 119,-119 119,-119z"/></g><g opacity="1" transform="matrix(1,0,0,1,119,-119)"><path fill="rgb(118,188,29)" fill-opacity="1" d=" M119,-119 C119,-119 119,119 119,119 C119,119 -119,119 -119,119 C-119,119 -119,-119 -119,-119 C-119,-119 119,-119 119,-119z"/></g><g opacity="1" transform="matrix(1,0,0,1,119,357)"><path fill="rgb(118,188,29)" fill-opacity="1" d=" M119,-119 C119,-119 119,119 119,119 C119,119 -119,119 -119,119 C-119,119 -119,-119 -119,-119 C-119,-119 119,-119 119,-119z"/></g></g></svg>