<svg xmlns="http://www.w3.org/2000/svg" width="11" height="19" viewBox="0 0 11 19" fill="none"><path d="M5.51668 2.86732C6.05502 2.86732 6.57131 3.08142 6.95197 3.46253C7.33263 3.84364 7.54649 4.36053 7.54649 4.8995C7.54649 5.43847 7.33263 5.95536 6.95197 6.33647C6.57131 6.71757 6.05502 6.93168 5.51668 6.93168C4.97834 6.93168 4.46206 6.71757 4.08139 6.33647C3.70073 5.95536 3.48688 5.43847 3.48688 4.8995C3.48688 4.36053 3.70073 3.84364 4.08139 3.46253C4.46206 3.08142 4.97834 2.86732 5.51668 2.86732ZM5.51668 9.799C8.21938 9.799 10.4105 7.59979 10.4105 4.8995C10.4105 2.19921 8.21382 0 5.51668 0C2.81954 0 0.622904 2.19921 0.622904 4.8995C0.622904 7.59979 2.81954 9.799 5.51668 9.799ZM7.49644 13.8021C8.50072 13.5747 9.45953 13.1794 10.3326 12.6329C10.4918 12.532 10.6296 12.4007 10.7381 12.2465C10.8467 12.0923 10.9238 11.9182 10.9651 11.7341C11.0064 11.5501 11.0111 11.3597 10.9789 11.1738C10.9467 10.9879 10.8783 10.8102 10.7775 10.6508C10.6767 10.4914 10.5456 10.3535 10.3915 10.2448C10.2375 10.1362 10.0636 10.059 9.87976 10.0176C9.69592 9.97626 9.50575 9.97156 9.32009 10.0038C9.13444 10.036 8.95694 10.1045 8.79774 10.2054C7.80881 10.8241 6.66614 11.1522 5.5 11.1522C4.33386 11.1522 3.19119 10.8241 2.20226 10.2054C2.04306 10.1045 1.86556 10.036 1.67991 10.0038C1.49425 9.97156 1.30408 9.97626 1.12024 10.0176C0.936399 10.059 0.762498 10.1362 0.608464 10.2448C0.45443 10.3535 0.323281 10.4914 0.222504 10.6508C0.121718 10.8102 0.0532768 10.9879 0.0210894 11.1738C-0.0110981 11.3597 -0.00640228 11.5501 0.0349098 11.7341C0.0762219 11.9182 0.153341 12.0923 0.261863 12.2465C0.370385 12.4007 0.508184 12.532 0.667393 12.6329C1.55161 13.1897 2.50256 13.5794 3.50356 13.8021L0.778615 16.5469C0.509446 16.8164 0.358228 17.1819 0.358228 17.563C0.358228 17.9441 0.509446 18.3096 0.778615 18.5791C1.04778 18.8486 1.41286 19 1.79352 19C2.17418 19 2.53925 18.8486 2.80842 18.5791L5.5 15.8788L8.19158 18.5736C8.32482 18.7071 8.48304 18.813 8.65718 18.8852C8.83132 18.9575 9.01798 18.9946 9.20648 18.9946C9.39499 18.9946 9.58164 18.9575 9.75578 18.8852C9.92993 18.813 10.0881 18.7071 10.2214 18.5736C10.3547 18.4402 10.4605 18.2818 10.5327 18.1074C10.6048 17.9331 10.642 17.7462 10.642 17.5575C10.642 17.3687 10.6048 17.1819 10.5327 17.0075C10.4605 16.8332 10.3547 16.6748 10.2214 16.5414L7.47975 13.7965" fill="#fff"/></svg>