<svg _ngcontent-ppy-c10="" width="70" height="45" viewBox="0 0 70 35" fill="none" class="icon"><path _ngcontent-ppy-c10="" d="M3.58522 15.5605C2.99198 15.6414 2.44549 15.226 2.36461 14.6328C2.28372 14.0395 2.69906 13.4931 3.2923 13.4122L3.58522 15.5605ZM19.2712 24.4216L19.4245 23.3484L19.2712 24.4216ZM47.2255 19.9087C47.5095 20.4358 47.3124 21.0933 46.7853 21.3773L38.1954 26.0045C37.6683 26.2884 37.0108 26.0913 36.7268 25.5642C36.4429 25.0371 36.64 24.3796 37.1671 24.0956L44.8026 19.9826L40.6895 12.3471C40.4055 11.82 40.6027 11.1625 41.1298 10.8786C41.6569 10.5946 42.3144 10.7918 42.5983 11.3189L47.2255 19.9087ZM3.2923 13.4122C7.96835 12.7746 10.8219 15.4506 13.0703 18.0107C14.2365 19.3386 15.187 20.5648 16.2556 21.5771C17.296 22.5628 18.2974 23.1874 19.4245 23.3484L19.1179 25.4948C17.3558 25.2431 15.956 24.28 14.7644 23.1511C13.6009 22.0489 12.4883 20.6337 11.4412 19.4415C9.26314 16.9615 7.08972 15.0827 3.58522 15.5605L3.2923 13.4122ZM19.4245 23.3484C21.8322 23.6924 23.3499 23.2898 24.6001 22.6283C25.2513 22.2837 25.8532 21.8563 26.5041 21.3677C27.1384 20.8915 27.8411 20.3394 28.612 19.8311C30.2024 18.7825 32.1409 17.8765 35.0054 17.6483C37.8353 17.4228 41.5091 17.8634 46.5825 19.3844L45.9598 21.4613C41.0331 19.9842 37.6445 19.6131 35.1776 19.8096C32.7452 20.0034 31.1525 20.7532 29.8054 21.6413C29.1075 22.1015 28.49 22.588 27.8059 23.1016C27.1384 23.6027 26.4239 24.1163 25.6142 24.5447C23.9425 25.4292 21.9602 25.9009 19.1179 25.4948L19.4245 23.3484Z" fill="black" class="path1"/><path _ngcontent-ppy-c10="" d="M3.85589 14.5535C3.26265 14.6343 2.71616 14.219 2.63527 13.6258C2.55439 13.0325 2.96973 12.486 3.56297 12.4051L3.85589 14.5535ZM19.5419 23.4146L19.6952 22.3414L19.5419 23.4146ZM60.7848 24.0408C60.9958 24.6011 60.7127 25.2264 60.1524 25.4374L51.0216 28.8762C50.4613 29.0873 49.836 28.8041 49.625 28.2438C49.4139 27.6835 49.6971 27.0582 50.2574 26.8472L58.3736 23.7904L55.3169 15.6742C55.1058 15.1139 55.389 14.4886 55.9493 14.2776C56.5096 14.0665 57.1349 14.3497 57.3459 14.91L60.7848 24.0408ZM3.56297 12.4051C8.23901 11.7676 11.0926 14.4436 13.341 17.0037C14.5072 18.3316 15.4576 19.5577 16.5262 20.57C17.5667 21.5557 18.568 22.1804 19.6952 22.3414L19.3885 24.4878C17.6265 24.236 16.2267 23.2729 15.0351 22.1441C13.8716 21.0418 12.7589 19.6266 11.7119 18.4345C9.53381 15.9545 7.36039 14.0756 3.85589 14.5535L3.56297 12.4051ZM19.6952 22.3414C22.0779 22.6818 24.0595 22.2387 26.1705 21.495C28.2213 20.7725 30.62 19.6623 33.3791 18.9332C39.1143 17.4176 46.8064 17.3624 60.2175 23.4353L59.3231 25.4104C46.2341 19.4833 39.062 19.6741 33.933 21.0294C31.26 21.7358 29.2266 22.7172 26.8909 23.54C24.6152 24.3417 22.2558 24.8974 19.3885 24.4878L19.6952 22.3414Z" fill="black" class="path2"/></svg>