<svg _ngcontent-ppy-c10="" width="88" height="79" viewBox="0 0 88 79" fill="none" xmlns="http://www.w3.org/2000/svg"><path _ngcontent-ppy-c10="" fill-rule="evenodd" clip-rule="evenodd" d="M8.5957 0.298828C4.17749 0.298828 0.595703 3.88086 0.595703 8.29883V70.2988C0.595703 74.7168 4.17749 78.2988 8.5957 78.2988H79.5957C84.0139 78.2988 87.5957 74.7168 87.5957 70.2988V8.29883C87.5957 3.88086 84.0139 0.298828 79.5957 0.298828H8.5957ZM41.0957 14.7988C41.0957 12.8652 42.6626 11.2988 44.5957 11.2988C46.5288 11.2988 48.0957 12.8652 48.0957 14.7988V35.7988H69.0957C71.0288 35.7988 72.5957 37.3652 72.5957 39.2988C72.5957 41.2324 71.0288 42.7988 69.0957 42.7988H48.0957V63.7988C48.0957 65.7324 46.5288 67.2988 44.5957 67.2988C42.6626 67.2988 41.0957 65.7324 41.0957 63.7988V42.7988H20.0957C18.1626 42.7988 16.5957 41.2324 16.5957 39.2988C16.5957 37.3652 18.1626 35.7988 20.0957 35.7988H41.0957V14.7988Z" fill="black"/></svg>