<svg _ngcontent-ppy-c12="" width="130" height="148" viewBox="0 0 130 148" fill="none" xmlns="http://www.w3.org/2000/svg"><path _ngcontent-ppy-c12="" d="M45.1832 126.446C38.6856 124.277 34.593 121.212 32.6666 117.058C29.5931 110.444 32.6847 102.715 35.947 94.5318C36.8965 92.1373 37.8674 89.6858 38.679 87.2784C40.4855 81.8708 41.7659 76.1362 42.9852 70.5992C45.0508 61.2991 47.1903 51.6634 51.9163 42.9843C59.3553 29.3347 71.1099 22.2914 83.3811 24.1668C93.1404 25.665 99.2188 29.8182 101.404 36.4305C105.327 48.3774 94.7752 63.8574 93.5775 65.5816C91.8659 68.0018 89.845 70.4683 87.6883 73.072C82.0307 79.9099 75.636 87.6585 72.0748 98.3182C71.0556 101.348 70.2932 104.611 69.5734 107.76C67.7103 115.741 65.9665 123.3 60.1734 126.519C56.4448 128.592 51.54 128.576 45.1832 126.446ZM88.3604 29.0368C86.7316 28.4846 84.871 28.0661 82.8568 27.7457C67.4475 25.3816 58.3356 38.8387 55.1314 44.7215C50.6449 52.9519 48.5729 62.321 46.5507 71.3843C45.3008 77.0201 43.9899 82.8536 42.1464 88.429C41.3042 90.9352 40.312 93.4436 39.3383 95.868C36.3803 103.309 33.5715 110.352 35.9751 115.535C37.445 118.726 40.8571 121.166 46.3636 123.003C51.6995 124.776 55.6467 124.907 58.4305 123.329C62.8153 120.873 64.4077 114.081 66.0683 106.9C66.8215 103.679 67.5904 100.348 68.6585 97.1349C72.4273 85.8524 79.0665 77.8322 84.9295 70.7405C87.0379 68.1965 89.0225 65.7748 90.6524 63.486C94.6807 57.7759 100.748 45.8826 98.0111 37.5392C96.6804 33.5958 93.4417 30.7275 88.3604 29.0368Z" fill="black"/><path _ngcontent-ppy-c12="" d="M48.0749 93.8947C47.2275 94.1479 46.6118 94.7864 46.1406 95.8877L44.8336 98.9073L44.8215 98.9222L58.788 104.962L58.8747 105.008L59.6196 103.263L59.6317 103.248L53.85 100.743L54.3973 99.4564C54.8592 98.397 54.9004 97.4913 54.5028 96.7C54.0847 95.8427 53.1469 95.1084 51.6446 94.4609C50.1572 93.8255 48.9763 93.6358 48.0749 93.8947ZM50.9025 96.2327C51.8034 96.6158 52.3651 97.0209 52.6417 97.4425C52.9005 97.825 52.919 98.2601 52.688 98.7897L52.1621 100.02L47.2542 97.901L47.7801 96.671C48.2542 95.5967 49.1578 95.4878 50.9025 96.2327Z" fill="black"/><path _ngcontent-ppy-c12="" d="M51.0753 84.7831L50.9708 84.6985L50.135 86.6167L56.1864 91.2919L48.6453 90.1062L48.6303 90.0942L47.7945 92.0124L58.5 93.2879L59.8289 94.3634C60.7845 95.1368 60.9168 95.6146 60.4669 96.659L60.4214 96.7457L62.1093 97.4693L62.1548 97.3825C62.9238 95.6079 62.9592 94.6481 61.2663 93.2286L51.0753 84.7831Z" fill="black"/><path _ngcontent-ppy-c12="" d="M64.4507 82.2394L63.703 83.9572L63.6909 83.9721L63.7777 84.0176C64.4389 84.3303 64.9288 84.7021 65.1485 85.1023C65.2972 85.3461 65.406 85.7308 65.175 86.2604C64.9895 86.7034 64.6639 86.9835 64.2494 87.0682C63.4205 87.2375 62.2708 86.826 59.0088 85.4216C55.7469 84.0171 54.664 83.462 54.2182 82.7305C54.0013 82.3573 53.9856 81.9492 54.1711 81.5063C54.39 80.9915 54.7661 80.8017 55.0455 80.7312C55.4841 80.6167 56.0266 80.7098 56.7511 80.9749L56.8378 81.0204L57.5826 79.2756L57.4959 79.2301C56.2958 78.7283 55.1533 78.6439 54.2604 78.9838C53.4336 79.3032 52.8784 79.867 52.4953 80.7678C52.0788 81.7404 52.0946 82.6675 52.5426 83.549C53.2487 84.936 54.5171 85.5671 58.2519 87.1812C61.9867 88.7953 63.3219 89.2829 64.8212 88.8654C65.3111 88.7181 65.7504 88.4806 66.1094 88.1287C66.4321 87.8215 66.6802 87.4539 66.8778 86.996C67.2396 86.1521 67.2921 85.3544 66.9905 84.5667C66.6477 83.6468 65.7853 82.85 64.5524 82.297L64.4507 82.2394Z" fill="black"/><path _ngcontent-ppy-c12="" d="M67.8327 74.4256L67.085 76.1433L67.0729 76.1582L67.1597 76.2037C67.8209 76.5165 68.3108 76.8882 68.5305 77.2884C68.6791 77.5323 68.7879 77.9169 68.557 78.4466C68.3714 78.8895 68.0459 79.1697 67.6314 79.2543C66.8025 79.4236 65.6528 79.0121 62.3908 77.6077C59.1288 76.2033 58.046 75.6482 57.6002 74.9166C57.3833 74.5434 57.3676 74.1354 57.5531 73.6924C57.772 73.1777 58.1481 72.9878 58.4275 72.9174C58.8661 72.8029 59.4086 72.8959 60.133 73.161L60.2198 73.2065L60.9675 71.4888L60.9796 71.4738L60.8928 71.4284C59.6927 70.9266 58.5502 70.8421 57.6573 71.1821C56.8305 71.5014 56.2753 72.0652 55.8922 72.9661C55.4757 73.9387 55.4915 74.8657 55.9395 75.7472C56.6456 77.1342 57.914 77.7654 61.6488 79.3795C65.3836 80.9936 66.7188 81.4811 68.2182 81.0636C68.708 80.9164 69.1473 80.6789 69.5063 80.3269C69.829 80.0198 70.0771 79.6522 70.2747 79.1943C70.6365 78.3503 70.689 77.5527 70.3874 76.765C70.0446 75.8451 69.1822 75.0482 67.9493 74.4952L67.8327 74.4256Z" fill="black"/><path _ngcontent-ppy-c12="" d="M61.1274 61.3378L61.0976 61.3136L60.2738 63.2169L60.2767 63.2439L65.3187 69.2273L58.9206 66.4462L58.8786 66.4369L58.1217 68.1966L72.1031 74.2486L72.1898 74.2941L72.9347 72.5493L72.9468 72.5344L65.9202 69.4917L74.4244 69.0598L74.4393 69.0719L75.2844 67.1117L75.3086 67.0819L66.2847 67.6368L61.1274 61.3378Z" fill="black"/><path _ngcontent-ppy-c12="" d="M64.515 53.4287L63.837 55.0299L63.8249 55.0448L71.6838 62.0971L62.5833 58.1667L62.4965 58.1212L61.7247 59.8688L61.7275 59.8958L75.694 65.9357L75.7808 65.9812L76.4709 64.3651L76.483 64.3502L68.639 57.31L77.7275 61.2553L77.8114 61.2738L78.5711 59.5411L78.5683 59.5141L64.6018 53.4742L64.515 53.4287Z" fill="black"/><path _ngcontent-ppy-c12="" d="M65.5431 48.676C65.8025 48.4165 66.0264 48.0788 66.2148 47.6628C66.8289 46.2323 66.4213 45.0871 65.0093 44.3891L64.9226 44.3436L64.3632 45.6454L64.3512 45.6603L64.423 45.6938C65.033 46.0392 65.2044 46.4992 64.94 47.1007C64.6756 47.7022 64.2185 47.9005 63.5537 47.6838L63.4698 47.6653L62.8984 48.9821L62.9972 49.0126C64.036 49.4085 64.8976 49.2904 65.5431 48.676Z" fill="black"/><path _ngcontent-ppy-c12="" d="M68.3455 44.816L68.2736 44.7826L67.5686 46.3866L75.4304 53.4659L66.3148 49.5234L66.2281 49.4779L65.4833 51.2227L65.4712 51.2376L79.4256 57.2924L79.5245 57.323L80.2295 55.719L80.2267 55.692L72.3706 48.6667L81.4711 52.5971L81.5579 52.6426L82.3148 50.8829L82.3269 50.868L68.3455 44.816Z" fill="black"/></svg>