<svg xmlns="http://www.w3.org/2000/svg" viewBox="-237.9999237060547 -237.9999237060547 713.9998779296875 713.9998779296875"><g transform="matrix(0.7071067690849304,-0.7071067690849304,0.7071067690849304,0.7071067690849304,892.6732177734375,704.2482299804688)" opacity="1" style="display: none;"><g opacity="1" transform="matrix(1,0,0,1,356.99993896484375,119)"><path fill="rgb(0,255,255)" fill-opacity="1" d=" M119,-119 C119,-119 119,119 119,119 C119,119 -119,119 -119,119 C-119,119 -119,-119 -119,-119 C-119,-119 119,-119 119,-119z"/></g><g opacity="1" transform="matrix(1,0,0,1,-118.99992370605469,119)"><path fill="rgb(0,255,255)" fill-opacity="1" d=" M119,-119 C119,-119 119,119 119,119 C119,119 -119,119 -119,119 C-119,119 -119,-119 -119,-119 C-119,-119 119,-119 119,-119z"/></g><g opacity="1" transform="matrix(1,0,0,1,119,-118.99992370605469)"><path fill="rgb(0,255,255)" fill-opacity="1" d=" M119,-119 C119,-119 119,119 119,119 C119,119 -119,119 -119,119 C-119,119 -119,-119 -119,-119 C-119,-119 119,-119 119,-119z"/></g><g opacity="1" transform="matrix(1,0,0,1,119,356.99993896484375)"><path fill="rgb(0,255,255)" fill-opacity="1" d=" M119,-119 C119,-119 119,119 119,119 C119,119 -119,119 -119,119 C-119,119 -119,-119 -119,-119 C-119,-119 119,-119 119,-119z"/></g></g></svg>