<svg xmlns="http://www.w3.org/2000/svg" width="126" height="34" viewBox="0 0 126 34" fill="none"><path d="M19.9028 11.9326L20.195 12.2248L19.0793 13.3406L21.2045 15.4658L19.7966 16.8738L17.6713 14.7486L16.5555 15.8643L16.2633 15.5721L19.9028 11.9326Z" fill="black"/><path d="M17.3253 17.2998C17.5113 16.9279 17.4582 16.4497 17.1394 16.1309C16.7409 15.7324 16.1033 15.7324 15.7314 16.1309L12.7561 19.1062L15.2001 21.5503L16.6081 20.1423L15.572 19.1062L15.9705 18.7078L17.7238 19.0265L19.1849 17.5654L17.3253 17.2998ZM15.7314 18.3624L15.2798 18.814L14.4297 17.9639L14.8813 17.5123C15.1204 17.2732 15.4923 17.2732 15.7314 17.5123C15.9705 17.7514 15.9705 18.1233 15.7314 18.3624Z" fill="black"/><path fill-rule="evenodd" clip-rule="evenodd" d="M17.0181 9.04296L25.2534 0.807617L33.4888 9.04296L25.2239 17.2783L17.0181 9.04296Z" fill="black"/><path fill-rule="evenodd" clip-rule="evenodd" d="M0.547241 25.4834L8.78259 17.248L17.0179 25.4834L8.78259 33.7187L0.547241 25.4834Z" fill="black"/><path fill-rule="evenodd" clip-rule="evenodd" d="M25.2239 17.2773L33.4593 25.5127L25.2239 33.748L17.0181 25.4832L25.2239 17.2773Z" fill="black"/><path fill-rule="evenodd" clip-rule="evenodd" d="M8.7834 0.808594L17.0187 9.04394L8.7834 17.2793L0.54805 9.04394L8.7834 0.808594Z" fill="black"/><path fill-rule="evenodd" clip-rule="evenodd" d="M58.1359 9.04296L49.9301 0.807617L33.4594 17.2783L49.9301 33.7195L58.1359 25.4841L49.9301 17.2783L58.1359 9.04296Z" fill="black"/><path d="M83.3447 26.3689C81.6622 28.0514 79.7436 28.9369 76.9394 28.9369C74.1353 28.9369 72.2166 28.0218 70.5341 26.3689C68.1137 23.9485 68.2023 20.7311 68.2023 17.2775C68.2023 13.824 68.1137 10.6066 70.5341 8.18617C72.2166 6.50368 74.1353 5.61816 76.9394 5.61816C79.7436 5.61816 81.6622 6.5332 83.3447 8.18617C85.7651 10.6066 85.6765 13.824 85.6765 17.2775C85.6765 20.7311 85.7651 23.9485 83.3447 26.3689ZM79.2122 11.6397C78.799 11.0789 78.002 10.6361 76.9689 10.6361C75.9358 10.6361 75.1388 11.0789 74.7256 11.6397C74.2238 12.3186 73.8991 13.0861 73.8991 17.2775C73.8991 21.469 74.2238 22.2069 74.7256 22.8858C75.1388 23.4467 75.9358 23.9189 76.9689 23.9189C78.002 23.9189 78.799 23.4467 79.2122 22.8858C79.714 22.2069 80.0387 21.469 80.0387 17.2775C80.0387 13.0861 79.714 12.3186 79.2122 11.6397Z" fill="black"/><path d="M95.859 10.8139V14.8282H104.36V19.8462H95.859V28.7014H90.2212V5.7959H105.806V10.8139H95.859Z" fill="black"/><path d="M115.695 10.8139V14.8282H124.196V19.8462H115.695V28.7014H110.057V5.7959H125.642V10.8139H115.695Z" fill="black"/></svg>